<svg width="86" height="99" viewBox="0 0 86 99" fill="none" xmlns="http://www.w3.org/2000/svg">
<path d="M49.1093 69.839C50.3403 70.208 51.6603 70.848 52.4273 71.954C54.1633 74.46 58.7883 76.854 60.6403 76.558C62.4923 76.263 62.0313 78.422 57.7403 79.379C54.3323 80.142 51.2723 77.81 49.6773 75.832C50.4943 78.277 49.1153 80.189 50.4893 81.547C52.0513 83.088 51.8503 84.535 48.2223 83.011C48.0533 82.937 47.8863 82.865 47.7253 82.791C53.5373 89.388 55.0693 96.258 55.3553 97.84H28.7413C28.7093 89.498 26.8163 83.697 22.6463 80.386C18.8343 77.99 13.3793 77.693 8.45333 80.763C5.50933 84.289 3.56033 90.867 3.49233 97.84H1.83233C1.96633 90.863 3.39133 84.07 5.60233 80.797C7.91433 77.099 11.5903 72.943 17.3773 68.457L18.3963 67.314C19.0353 67.513 19.7383 67.736 20.4893 67.98C18.8333 66.884 17.8743 65.503 18.0773 63.66C18.2763 61.845 19.4223 61.189 20.6073 61.011C20.6543 60.877 20.7123 60.742 20.7873 60.607C22.5593 57.381 24.2363 58.253 24.9853 58.927C25.5573 57.431 25.8863 55.865 25.8473 54.254C25.1103 54.15 24.2953 53.965 23.3993 53.677C19.9413 52.566 18.8433 49.351 18.8433 49.351C18.8433 49.351 22.8983 51.377 22.8983 48.849C22.8983 47.531 20.3613 42.999 19.1003 40.579C18.6383 39.693 18.2533 38.143 17.9523 36.528C7.15733 36.049 0.334326 34.183 0.0153264 30.632C-0.475674 25.117 10.8123 17.542 36.5273 15.293C47.9713 14.291 62.8793 15.152 69.6123 19.864C69.6123 19.864 70.4783 20.527 71.7393 21.451C72.2863 21.426 72.8433 21.414 73.4093 21.414C80.1943 21.414 85.6943 23.241 85.6943 25.496C85.6943 27.334 82.0423 28.903 77.0193 29.415C73.1813 29.928 68.5753 30.428 62.7353 31.021C61.9613 32.479 61.6943 33.366 63.1733 35.459C64.2003 36.917 67.1673 41.289 67.8253 42.495C68.7473 44.177 63.4363 44.23 63.9013 45.508C64.1123 46.092 64.8313 47.564 65.0583 48.133C65.3373 48.822 63.6883 49.261 63.6763 49.741C63.6773 49.927 64.6943 50.023 64.5333 51.226C64.4353 51.961 62.9453 51.383 62.8613 54.193C62.8123 55.72 64.6373 57.845 61.5903 59.777C58.3153 61.853 46.9143 55.738 45.9613 67.298C45.9413 67.534 45.9233 67.694 45.9083 67.798C46.0103 67.806 46.1073 67.816 46.2053 67.825C48.5103 68.094 49.0403 68.828 49.1093 69.839ZM43.5063 78.759C43.2383 77.936 43.1153 76.969 43.1233 75.811C43.1293 74.643 43.2363 73.678 43.3873 72.899C41.1583 73.128 37.1713 72.985 30.2543 71.36L29.4243 71.166C33.1623 72.645 36.9463 74.362 39.8913 76.192C41.2003 77.007 42.4033 77.871 43.5063 78.759ZM73.0543 22.428C75.1563 23.904 77.7973 25.577 79.6813 26.162C82.8503 27.146 87.7943 25.933 83.3503 23.911C80.3513 22.545 75.7383 22.386 73.0543 22.428ZM19.8323 17.179L18.3653 9.57903C18.3653 9.57903 20.2223 0.416027 38.7883 0.0210271C53.3523 -0.289973 60.6913 2.92003 61.0433 4.94103C61.2473 6.12103 61.7103 11.697 62.0623 16.149C54.4903 14.169 44.5163 13.665 36.5063 14.366C30.0833 14.929 24.5333 15.919 19.8323 17.179ZM54.5743 79.979C54.7913 80.207 54.9983 80.43 55.1993 80.655C63.1973 87.723 60.5683 91.102 62.5533 98.08H60.8973C59.5953 93.36 55.7873 83.893 50.5993 78.459C50.6203 78.23 50.6403 78.012 50.6423 77.817C51.7133 78.746 53.0593 79.585 54.5743 79.979Z" fill="#0A0A0A"/>
</svg>
