<svg xmlns="http://www.w3.org/2000/svg" viewBox="0 0 36 50" fill="none">
  <path d="M35.995 26.563c0-.548-.405-.864-.902-.707L.902 36.698C.404 36.856 0 37.429 0 37.976v11.081c0 .548.404.865.902.707l34.191-10.841c.497-.158.902-.731.902-1.279V26.563Z" fill="url(#sublime-gradient)"/>
  <path d="M0 26.21c0 .548.404 1.121.902 1.279l34.196 10.843c.498.158.902-.159.902-.706V26.544c0-.547-.404-1.12-.902-1.278L.902 14.423C.404 14.265 0 14.581 0 15.129V26.21Z" fill="#FF9800"/>
  <path d="M35.995 3.793c0-.548-.405-.865-.902-.707L.902 13.927C.404 14.085 0 14.658 0 15.206v11.081c0 .548.404.864.902.707l34.191-10.842c.497-.158.902-.731.902-1.278V3.793Z" fill="#FF9800"/>
  <defs>
    <linearGradient id="sublime-gradient" x1="19.8394" y1="42.498" x2="8.72379" y2="46.0638" gradientUnits="userSpaceOnUse">
      <stop stop-color="#FF9700"/>
      <stop offset=".53" stop-color="#F48E00"/>
      <stop offset="1" stop-color="#D06F00"/>
    </linearGradient>
  </defs>
</svg>
