<svg width="159" height="158" viewBox="0 0 159 158" fill="none" xmlns="http://www.w3.org/2000/svg">
<g clip-path="url(#clip0_24_2)">
<path d="M60.8734 57.2554V42.3122C60.8734 41.0536 61.3456 40.1093 62.4462 39.4808L92.4905 22.1785C96.5804 19.8192 101.457 18.7186 106.489 18.7186C125.365 18.7186 137.32 33.3475 137.32 48.9192C137.32 50.0199 137.32 51.2785 137.162 52.537L106.017 34.2903C104.13 33.1897 102.242 33.1897 100.354 34.2903L60.8734 57.2554ZM131.028 115.456V79.7485C131.028 77.5457 130.083 75.9729 128.196 74.8722L88.7148 51.9071L101.613 44.5137C102.714 43.8852 103.658 43.8852 104.759 44.5137L134.803 61.8161C143.455 66.8502 149.274 77.5457 149.274 87.9268C149.274 99.8807 142.197 110.892 131.028 115.454V115.456ZM51.593 83.9962L38.6948 76.4465C37.5941 75.818 37.122 74.8737 37.122 73.6151V39.0103C37.122 22.18 50.0202 9.4381 67.4805 9.4381C74.0875 9.4381 80.2208 11.641 85.4129 15.573L54.4259 33.5054C52.5388 34.6061 51.5945 36.1789 51.5945 38.3818V83.9977L51.593 83.9962ZM79.3562 100.04L60.8733 89.659V67.6381L79.3562 57.257L97.8374 67.6381V89.659L79.3562 100.04ZM91.2319 147.859C84.6249 147.859 78.4916 145.656 73.2995 141.725L104.286 123.791C106.173 122.691 107.118 121.118 107.118 118.915V73.2993L120.174 80.8491C121.275 81.4776 121.747 82.4219 121.747 83.6805V118.286C121.747 135.115 108.69 147.858 91.2319 147.858V147.859ZM53.9522 112.782L23.9079 95.4796C15.2559 90.4453 9.4369 79.75 9.4369 69.3689C9.4369 57.257 16.6725 46.4037 27.8399 41.8417V77.7051C27.8399 79.9079 28.7842 81.4807 30.6713 82.5814L69.9961 105.388L57.0979 112.782C55.9972 113.411 55.0528 113.411 53.9522 112.782ZM52.2229 138.579C34.4484 138.579 21.3923 125.208 21.3923 108.692C21.3923 107.433 21.5501 106.175 21.7066 104.916L52.6936 122.849C54.5807 123.949 56.4693 123.949 58.3564 122.849L97.8375 100.042V114.985C97.8375 116.244 97.3654 117.187 96.2647 117.816L66.2204 135.118C62.1306 137.477 57.2542 138.579 52.2215 138.579L52.2229 138.579ZM91.2319 157.296C110.265 157.296 126.151 143.769 129.77 125.836C147.387 121.274 158.713 104.758 158.713 87.9284C158.713 76.9172 153.994 66.2218 145.499 58.5141C146.286 55.2106 146.759 51.9071 146.759 48.6051C146.759 26.1122 128.512 9.2804 107.434 9.2804C103.188 9.2804 99.0975 9.9089 95.0076 11.3254C87.9284 4.4041 78.1758 0 67.4805 0C48.4474 0 32.5614 13.5268 28.9421 31.4591C11.3255 36.021 0 52.5371 0 69.3673C0 80.3785 4.7184 91.0738 13.2125 98.7815C12.426 102.085 11.9539 105.388 11.9539 108.691C11.9539 131.183 30.2005 148.015 51.2787 148.015C55.5249 148.015 59.6149 147.387 63.7047 145.971C70.7823 152.892 80.535 157.296 91.2319 157.296Z" fill="white"/>
</g>
<defs>
<clipPath id="clip0_24_2">
<rect width="158.713" height="157.296" fill="white"/>
</clipPath>
</defs>
</svg>
