<svg width="151" height="103" viewBox="0 0 151 103" fill="none" xmlns="http://www.w3.org/2000/svg">
<path d="M149.709 19.7638C149.609 19.2638 149.409 18.6638 149.209 18.0638C149.009 17.4638 148.609 16.6638 148.309 16.1638C147.609 15.0638 146.909 14.2638 146.109 13.4638C144.609 11.9638 143.009 10.7638 141.609 9.66382C140.909 9.16382 140.209 8.56382 139.609 8.06382C138.909 7.56382 138.209 6.86382 137.409 6.36382C135.909 5.16382 134.309 4.06382 132.609 3.06382C130.909 2.06382 128.909 1.16382 126.809 0.563817C124.709 -0.0361829 122.309 -0.136184 120.109 0.163816C117.809 0.463816 115.809 1.26382 113.909 2.26382C112.009 3.16382 110.109 4.66382 108.709 6.16382C107.309 7.66382 106.209 9.16382 105.209 10.2638C104.209 11.3638 103.309 12.0638 102.109 12.4638C101.009 12.8638 99.509 13.0638 98.009 13.0638C96.409 13.0638 94.809 12.9638 93.109 12.6638C89.709 12.2638 86.209 11.4638 82.309 11.0638L80.809 10.9638L79.409 10.8638L76.709 10.7638C74.909 10.6638 73.009 10.6638 71.209 10.6638C59.209 10.6638 47.209 11.9638 35.509 14.1638L26.809 15.7638C23.909 16.3638 20.709 16.8638 17.509 18.5638C15.909 19.3638 14.409 20.4638 13.109 21.9638C12.709 22.4638 12.309 22.9638 11.909 23.5638C11.709 23.4638 11.409 23.3638 11.209 23.4638C7.60902 24.5638 4.60902 26.7638 2.30902 29.6638C1.40902 30.8638 0.609017 32.2638 0.209017 34.0638C0.00901724 34.9638 -0.0909831 35.8638 0.109017 37.0638C0.309017 38.1638 0.809017 39.2638 1.50902 40.0638C2.20902 40.8638 3.20902 41.3638 4.20902 41.6638C5.10902 41.8638 5.90902 41.9638 6.70902 41.8638C7.70902 41.7638 8.70902 41.4638 9.50902 41.1638C10.209 45.7638 11.509 50.1638 12.509 54.3638C13.209 57.1638 13.709 59.8638 13.909 62.6638C14.009 63.9638 14.009 65.4638 13.909 66.6638C13.809 67.8638 13.409 69.1638 13.009 70.4638C12.109 73.0638 10.609 75.8638 10.309 79.2638C10.009 82.4638 10.409 85.4638 10.609 88.3638C10.809 91.2638 10.709 94.0638 10.709 97.0638C10.709 97.4638 10.809 97.8638 10.809 98.2638C10.909 98.7638 11.009 99.2638 11.209 99.6638C11.509 100.564 12.209 101.264 13.109 101.664C13.509 101.864 14.009 101.964 14.409 102.064C14.809 102.064 15.209 102.164 15.609 102.164C16.409 102.164 17.109 102.264 17.909 102.264C19.509 102.264 20.209 101.864 20.209 101.464C22.109 101.464 23.609 100.364 23.609 99.0638C23.609 96.2638 23.509 93.6638 23.709 91.1638C23.909 88.7638 24.609 86.5638 25.709 84.4638C27.709 80.8638 30.209 76.9638 32.209 72.6638C32.409 72.1638 32.609 71.6638 32.909 71.1638C43.309 74.2638 54.509 74.7638 65.209 74.1638C72.009 73.7638 78.609 73.4638 85.309 73.3638C85.509 74.3638 85.609 75.3638 85.709 76.3638C85.809 77.1638 85.809 78.1638 85.809 79.1638L85.909 82.0638C86.009 83.9638 86.209 85.9638 86.409 87.8638C86.809 91.7638 87.509 95.5638 88.309 99.4638C88.409 99.9638 90.009 99.9638 90.109 99.4638C91.009 95.5638 91.609 91.6638 92.009 87.7638C92.209 85.7638 92.409 83.8638 92.509 81.8638L92.609 78.9638C92.609 77.9638 92.709 77.0638 92.609 75.8638C92.409 73.1638 91.809 70.3638 90.809 67.8638C89.809 65.3638 88.509 63.1638 87.409 61.1638C86.809 60.1638 85.109 60.1638 83.409 61.0638C81.709 61.9638 80.809 63.5638 81.409 64.5638C81.809 65.2638 82.109 65.8638 82.509 66.4638C76.609 66.5638 70.709 66.8638 65.009 67.1638C54.509 67.7638 44.309 68.7638 33.909 68.9638C35.009 65.5638 35.609 62.0638 35.409 58.5638C35.409 57.9638 33.809 57.7638 33.609 58.3638C32.209 62.6638 30.109 66.2638 27.609 69.7638C25.109 73.2638 22.309 76.7638 19.909 81.1638C18.409 83.9638 17.509 87.2638 17.209 90.2638C16.909 93.3638 17.009 96.2638 17.009 98.9638C17.009 99.4638 17.309 99.9638 17.709 100.364C17.209 100.364 16.609 100.264 16.109 100.164C15.809 100.064 15.509 100.064 15.109 99.9638C14.809 99.8638 14.609 99.8638 14.409 99.6638C13.909 99.4638 13.609 99.0638 13.509 98.5638C13.409 98.3638 13.409 98.0638 13.409 97.8638C13.409 97.5638 13.409 97.2638 13.409 96.8638C13.609 94.0638 13.909 91.0638 13.909 88.0638C13.909 85.0638 13.709 82.1638 14.109 79.5638C14.509 77.0638 15.909 74.6638 17.109 71.7638C17.709 70.3638 18.209 68.7638 18.509 67.0638C18.709 65.3638 18.809 63.8638 18.709 62.2638C18.609 59.1638 18.209 56.0638 17.609 53.1638C16.409 47.2638 14.909 41.6638 14.909 36.2638C14.909 35.5638 14.909 34.9638 15.009 34.2638L15.209 32.2638L15.609 30.3638C15.809 29.7638 15.909 29.1638 16.109 28.6638C16.509 27.5638 17.109 26.6638 17.809 25.8638C18.509 25.0638 19.409 24.4638 20.409 23.9638C22.509 22.9638 25.209 22.4638 28.009 21.9638L36.709 20.5638C48.209 18.6638 59.709 17.5638 71.309 17.5638C73.109 17.5638 74.809 17.5638 76.609 17.6638L79.209 17.7638L80.509 17.8638L81.709 17.9638C85.009 18.2638 88.509 19.0638 92.209 19.5638C94.109 19.7638 96.009 19.9638 98.109 19.9638C99.109 19.9638 100.209 19.8638 101.209 19.7638C102.309 19.6638 103.409 19.3638 104.609 18.9638C106.909 18.1638 108.809 16.5638 110.309 15.0638C111.709 13.5638 112.809 12.0638 113.809 10.9638C114.909 9.86382 115.809 9.06382 117.209 8.36382C118.409 7.76382 119.609 7.26382 120.909 7.06382C120.909 7.26382 120.809 7.46382 120.809 7.66382C120.609 8.46382 120.609 9.36382 120.609 10.1638C120.009 9.96382 119.609 9.86382 119.509 10.0638L117.809 13.3638C116.809 15.1638 116.709 17.3638 117.209 19.9638C117.209 20.1638 118.609 20.8638 118.809 20.7638C120.809 19.9638 122.309 18.8638 123.309 17.4638C124.309 18.5638 125.209 19.3638 126.109 20.0638C127.409 21.0638 128.609 21.8638 129.709 22.7638C130.709 23.5638 131.609 24.5638 131.709 24.9638C131.709 25.0638 132.109 24.9638 132.709 24.8638C133.309 24.8638 134.209 24.9638 135.209 24.9638C136.109 24.9638 137.009 24.7638 137.609 24.2638C138.209 23.7638 138.409 22.9638 138.209 22.3638C137.709 21.0638 137.009 20.1638 136.309 19.3638C135.609 18.5638 134.909 17.9638 134.209 17.3638C132.809 16.2638 131.509 15.2638 130.309 14.3638C129.309 13.6638 128.409 12.9638 127.909 12.5638C127.809 12.5638 127.609 12.3638 127.509 12.0638C127.309 11.8638 127.209 11.6638 127.009 11.4638C126.709 11.0638 126.409 10.6638 126.209 10.2638C125.609 9.46382 125.209 8.26382 124.809 6.96382C126.309 7.26382 127.809 7.96382 129.409 8.86382C130.809 9.66382 132.109 10.6638 133.409 11.6638C134.109 12.1638 134.709 12.7638 135.409 13.2638C136.209 13.8638 136.909 14.4638 137.609 14.9638C139.009 16.0638 140.309 17.0638 141.409 18.0638C141.909 18.5638 142.309 19.0638 142.609 19.5638C142.809 19.8638 142.809 19.8638 142.909 20.1638C143.009 20.3638 143.109 20.7638 143.209 21.0638C143.809 23.6638 143.909 26.4638 143.909 27.4638C143.909 27.9638 143.909 28.3638 143.609 28.8638C143.209 29.2638 142.809 29.6638 142.809 30.1638C142.709 30.6638 143.009 31.0638 143.909 31.5638C144.309 31.6638 145.009 31.8638 145.709 31.5638C146.509 31.3638 147.209 30.9638 147.909 30.2638C149.209 28.9638 149.809 27.1638 150.109 25.3638C150.209 23.6638 150.109 21.7638 149.709 19.7638ZM7.50902 37.8638C7.10902 37.6638 6.70902 37.3638 6.50902 37.1638C6.40902 36.9638 6.40902 36.7638 6.40902 36.6638C6.40902 36.4638 6.50902 36.3638 6.60902 36.3638C6.70902 36.3638 6.70902 36.0638 6.90902 35.7638C7.20902 35.1638 7.60902 34.4638 8.10902 33.7638C8.50902 33.2638 9.00902 32.7638 9.50902 32.2638L9.40902 34.0638C9.40902 34.8638 9.40902 35.6638 9.40902 36.4638C9.40902 37.1638 9.50902 37.8638 9.60902 38.5638C8.80902 38.3638 8.10902 38.0638 7.50902 37.8638Z" fill="white"/>
<path d="M141.609 29.4639C141.009 29.4639 140.509 29.3639 139.909 29.4639C139.309 29.4639 138.709 29.4639 138.109 29.5639C136.909 29.7639 135.509 29.9639 134.309 31.0639C133.109 32.2639 132.709 33.6639 132.409 34.8639C132.109 36.0639 131.909 37.1639 131.709 38.2639C131.309 40.3639 130.709 42.4639 130.009 44.3639C129.309 46.2639 128.409 48.0639 127.209 49.6639C122.809 55.9639 113.709 57.7639 105.609 63.4639C103.109 65.2639 100.909 67.4639 99.1091 70.0639C97.3091 72.6639 96.0091 75.6639 95.3091 78.6639C94.9091 80.1639 94.7091 81.6639 94.5091 83.1639C94.4091 83.8639 94.3091 84.6639 94.3091 85.3639V86.4639C94.3091 86.7639 94.3091 87.3639 94.3091 87.7639C94.4091 89.2639 94.5091 90.5639 94.6091 91.9639C94.7091 93.2639 94.8091 94.5639 94.8091 95.8639C94.8091 97.0639 95.2091 98.0639 95.7091 98.6639C96.2091 99.2639 97.0091 99.6639 97.7091 100.364C98.1091 100.664 98.5091 100.764 99.1091 100.564C99.4091 100.464 99.6091 100.364 99.9091 100.164C100.209 99.9639 100.409 99.6639 100.609 99.4639C101.409 98.4639 101.809 97.0639 101.809 95.6639C101.709 92.7639 101.409 89.8639 101.209 87.3639C101.209 86.9639 101.209 86.9639 101.209 86.5639V85.6639C101.209 85.0639 101.309 84.4639 101.309 83.8639C101.409 82.6639 101.609 81.4639 101.909 80.2639C103.009 75.6639 105.709 71.7639 109.609 68.9639C110.409 68.3639 111.209 67.8639 112.109 67.2639C113.009 66.7639 113.909 66.1639 114.909 65.6639L120.809 62.4639C122.809 61.3639 124.909 60.0639 126.809 58.4639C128.709 56.8639 130.509 54.8639 131.809 52.6639C133.109 50.4639 134.009 48.0639 134.609 45.7639C135.209 43.4639 135.509 41.0639 135.609 38.7639C135.709 36.5639 135.609 34.0639 136.309 33.1639C136.609 32.6639 137.509 32.1639 138.409 31.9639C138.909 31.7639 139.409 31.6639 139.909 31.5639C140.409 31.4639 141.009 31.3639 141.509 31.2639C142.109 31.1639 142.309 30.7639 142.309 30.3639C142.509 29.8639 142.209 29.4639 141.609 29.4639Z" fill="white"/>
</svg>
