<svg width="87" height="76" viewBox="0 0 87 76" fill="none" xmlns="http://www.w3.org/2000/svg">
<mask id="path-1-outside-1_27_5" maskUnits="userSpaceOnUse" x="-0.500488" y="-0.499756" width="87" height="77" fill="black">
<rect fill="white" x="-0.500488" y="-0.499756" width="87" height="77"/>
<path d="M85.6191 24.0307C85.498 21.4721 83.4277 20.1909 82.7402 19.8315C82.4589 19.2299 81.5488 17.6323 79.6386 17.1206C77.8378 16.6401 75.8886 17.2495 75.1581 17.5307C74.5565 17.1714 73.9862 16.9604 73.5995 16.8511C73.5409 16.0307 73.1776 14.3316 71.5097 12.4605C69.7285 10.48 67.4081 10.3199 66.3378 10.3707C66.119 9.31206 65.3768 7.08156 62.9472 5.90186C60.7988 4.85106 58.916 5.47217 57.8769 6.17139C57.1659 5.19092 55.4277 3.31199 52.6855 3.44089C50.2167 3.55027 48.6074 4.95259 47.8261 5.83929C47.2948 5.22991 46.205 4.51119 43.9863 4.26899C41.3379 3.98774 39.4863 5.12055 38.5879 5.87059C38.1465 5.12059 37.209 4.05029 35.3496 3.54249C33.3691 2.99171 31.9785 3.27296 31.2598 3.51124C30.7285 2.65968 29.42 0.95264 27.2793 0.56984C25.0801 0.17922 23.1074 1.53078 22.3105 2.19094C21.58 1.70266 19.9316 0.95264 17.1621 1.58156C14.1113 2.27297 13.084 4.42136 12.7715 5.35106C8.94337 5.74169 8.18167 8.69086 8.08007 9.15966C7.58007 10.6792 7.81835 12.0699 8.0996 12.9605C6.6582 13.8394 2.9512 16.2417 2.6894 18.0699C2.58784 18.7417 2.84956 19.148 3.08784 19.3785C3.45893 19.7495 4.05659 19.9292 4.86904 19.9292C4.94717 19.9292 5.0292 19.9292 5.11904 19.9175C3.20884 23.2066 1.25964 27.148 0.669843 30.3275C0.259683 32.5384 0.591719 34.1478 1.65031 35.097C2.43937 35.808 3.49011 36.058 4.61121 36.0462C5.93151 36.0462 7.34171 35.7064 8.48231 35.3666C9.1034 35.1869 9.83391 35.1048 10.6112 35.0384C11.2597 34.9681 11.9706 34.8978 12.6893 34.7494C12.7206 34.8978 12.7479 35.0306 12.7674 35.1283C12.4784 35.8197 11.6072 38.1869 12.119 40.1791C12.5995 42.0502 14.1893 43.6088 14.8104 44.1674C14.7206 45.0892 14.6112 47.7572 15.9588 49.6986C17.2869 51.6205 19.8182 52.14 20.8299 52.2689C21.0682 52.9603 21.7791 54.3275 23.8494 55.7103C24.4978 56.1517 25.1775 56.4603 25.8494 56.679C25.8689 57.6087 25.8299 60.0696 24.9783 62.3587C24.0486 64.8587 23.0681 66.1595 22.4197 67.0071C21.8806 67.7181 21.49 68.2259 21.49 68.929C21.49 69.3275 21.6502 69.6907 21.9588 69.9485C22.4002 70.3274 23.1502 70.5188 24.24 70.5188C24.8806 70.5188 25.6306 70.4485 26.5095 70.3196C28.7283 69.9915 29.4392 69.0696 29.6501 66.1985C29.8415 63.6087 30.9392 60.1087 31.4509 58.5891C32.0095 58.9797 32.6814 59.3 33.3923 59.3899C33.7204 59.429 34.0915 59.4485 34.5134 59.4485H34.7751C34.7868 60.6985 34.8337 61.8274 34.9665 62.5071C35.6071 65.9173 35.3259 68.7883 34.1071 71.2883C33.4977 72.5266 33.8376 73.3664 34.2282 73.8469C34.9587 74.7453 36.3884 75.0657 37.6579 75.0657C38.2477 75.0657 38.7985 74.9954 39.236 74.886C40.236 74.6243 41.5758 73.8743 42.1071 72.5969C42.3571 71.9758 42.5056 70.968 41.7556 69.7375C40.4118 67.55 40.5603 64.0813 41.2595 61.7805C41.3884 61.3391 41.529 60.8821 41.6696 60.4016C42.3884 60.5422 43.068 60.6125 43.6891 60.6125C43.9391 60.6125 44.1696 60.6008 44.4001 60.5813C46.7517 60.3625 48.4509 59.2532 49.1696 58.6907C49.8297 59.1399 51.2712 59.9719 53.2477 60.1516C53.3766 60.7727 53.5875 61.9797 53.5875 63.1008C53.5875 63.8313 53.357 64.2219 53.0289 64.761C52.7203 65.2805 52.3687 65.8626 52.1695 66.8313C52.0406 67.5032 52.1578 68.0227 52.5289 68.3821C52.8805 68.7219 53.3805 68.843 53.9391 68.843C54.6579 68.843 55.4899 68.6516 56.2594 68.4641L56.3493 68.4446C57.2594 68.2336 58.0485 67.6243 58.5095 66.7844C58.9977 65.8859 59.068 64.8352 58.7087 63.8235C58.2282 62.4719 58.4704 59.9837 58.568 59.1047C60.2672 58.343 61.1774 57.4641 61.5797 56.9953C62.8297 57.2258 64.0211 57.2765 65.1188 57.1359C66.15 58.5773 66.7672 59.8664 66.5407 62.6867C66.3025 65.675 66.0095 66.8078 65.7322 67.8976C65.572 68.5187 65.4236 69.1085 65.2907 69.9992C65.029 71.7609 65.24 72.8586 65.9626 73.4601C66.3532 73.7882 66.8532 73.9093 67.3845 73.9093C68.115 73.9093 68.9236 73.6789 69.6853 73.4289C72.5837 72.4484 73.3845 66.7805 72.6736 61.6909C72.283 58.9018 72.6736 56.3315 73.0838 53.8511C74.2049 53.73 74.9744 53.1714 75.6033 52.0308C76.115 51.1011 76.1931 50.0816 75.8338 48.9019C76.4353 48.3628 76.865 47.7027 77.1229 46.9331C77.9314 44.4917 77.2439 42.1323 76.9041 41.2339C79.1736 38.9331 80.5838 36.5933 80.2244 32.9253C80.9432 32.9135 82.033 32.726 82.9236 31.8472C84.0447 30.7261 83.9353 29.0464 83.822 28.2964C84.4392 27.7417 85.7324 26.351 85.6191 24.0307ZM3.88107 18.5502C3.84982 18.5189 3.79123 18.4603 3.82248 18.2299C3.97092 17.2182 6.51388 15.2807 8.54128 14.0307C8.57253 14.0893 8.61941 14.1791 8.6819 14.2807C8.02174 15.2299 6.971 16.8002 5.8303 18.6791C4.6897 18.8588 4.06077 18.7299 3.88107 18.5502ZM10.5022 33.8902C9.67405 33.9683 8.88107 34.0504 8.16237 34.2613C7.10377 34.5699 3.85377 35.5308 2.42407 34.2417C1.68579 33.5699 1.47485 32.3315 1.80298 30.5308C2.73267 25.4605 7.38108 18.2298 9.39278 15.2928C10.0139 16.0428 10.9319 16.8631 12.1545 17.0428C12.9748 17.1639 13.8654 17.0116 14.7561 16.6132C15.0842 16.8944 15.6662 17.2928 16.5647 17.5428C16.0452 19.6131 16.4631 21.2811 16.6662 21.9022C15.8459 23.8006 16.2678 25.7538 16.4866 26.5038C16.1858 26.9257 15.635 27.7929 15.3655 28.8319C15.0959 29.871 15.2248 30.9413 15.674 31.8827C14.885 32.7734 13.9748 33.2343 13.0021 33.4921H12.9904C12.1701 33.7226 11.3303 33.8121 10.5022 33.8902ZM20.0217 15.3902C21.7912 16.1988 25.5803 18.1714 28.1428 21.1597C29.2209 22.4214 29.303 23.0386 29.1936 23.1909C28.842 23.6596 26.5334 23.4721 24.4319 22.5815C22.7835 21.8823 20.5022 19.3823 18.8108 17.1518C18.8498 17.1206 18.8811 17.0932 18.9202 17.062C19.4006 16.6401 19.7795 16.0426 20.0217 15.3902ZM28.5022 66.1092C28.303 68.7498 27.7912 68.9608 26.342 69.1795C24.1428 69.5076 23.0217 69.3397 22.7131 69.0701C22.6623 69.0193 22.6428 68.992 22.6428 68.9217C22.6428 68.6209 22.8732 68.3123 23.3342 67.7029C24.0256 66.7927 25.0725 65.4138 26.0647 62.7537C26.8928 60.5154 27.0139 58.1756 27.0139 56.9842C28.2951 57.2537 29.385 57.2225 29.9045 57.1951C30.0451 57.3553 30.2443 57.574 30.4943 57.8162C30.0724 59.0428 28.7327 63.0896 28.5022 66.1092ZM40.7522 70.3397C41.1506 70.9999 41.2405 71.6209 41.0217 72.1678C40.6819 72.9881 39.7014 73.578 38.9319 73.7772C37.6702 74.0975 35.721 73.8866 35.1038 73.1288C35.0022 73.0077 34.7132 72.6483 35.1233 71.8085C36.4514 69.078 36.7639 65.9687 36.0843 62.3085C35.6741 60.1171 36.1233 52.5701 36.1233 52.4881V52.4374C36.5022 52.4569 36.8733 52.4256 37.2522 52.3475C37.5804 52.2772 37.8929 52.1678 38.1936 52.0389C38.3929 51.9491 38.5647 51.8397 38.7444 51.7303C38.7835 51.7694 38.8226 51.8202 38.8733 51.8593C39.0022 51.9686 39.1351 52.0702 39.2718 52.1678C39.553 52.3593 39.8616 52.4882 40.1702 52.6093C40.7093 52.8085 41.2991 52.9374 41.8811 52.9999C41.5921 56.3983 40.8499 59.1796 40.1506 61.4491C39.3616 64.0624 39.2326 67.8319 40.7522 70.3397ZM57.6392 64.1913C57.8892 64.8905 57.8384 65.6132 57.5103 66.2225C57.2095 66.7811 56.69 67.1717 56.1001 67.3123L56.0102 67.3318C55.2485 67.5115 53.6821 67.8826 53.3305 67.5428C53.2602 67.4724 53.2524 67.2928 53.2993 67.0428C53.4477 66.2732 53.7407 65.7928 54.018 65.3319C54.3696 64.742 54.7368 64.1327 54.7368 63.0819C54.7368 62.0038 54.5571 60.8631 54.4165 60.1522C54.9672 60.1209 55.5571 60.0428 56.1782 59.8904C56.6079 59.7811 57.0063 59.6717 57.3774 59.5389C57.2719 60.7694 57.1704 62.871 57.6392 64.1913ZM69.3232 72.3202C67.9326 72.7889 67.0849 72.871 66.7138 72.5585C66.4638 72.3475 66.2138 71.7577 66.4521 70.1483C66.5731 69.3201 66.7216 68.7577 66.8739 68.1678C67.1552 67.078 67.4755 65.8475 67.7255 62.7576C68.0146 59.117 66.9755 57.6092 65.6239 55.8162C65.952 55.7654 66.2255 55.7068 66.452 55.6248C66.6512 55.7341 66.8739 55.8357 67.1005 55.9138C67.6512 56.113 68.2294 56.2029 68.8114 56.2029C69.4207 56.2029 70.0302 56.0935 70.6122 55.8826C71.034 55.7224 71.3934 55.5037 71.702 55.2615C71.4012 57.3318 71.2137 59.492 71.5418 61.8318C72.2605 67.0506 71.292 71.6603 69.3232 72.3202ZM75.831 40.6722C75.6591 40.8441 75.6122 41.1019 75.7099 41.3206C75.7216 41.3519 76.9013 43.9612 76.038 46.5511C75.8075 47.2308 75.4091 47.8011 74.8271 48.2308L74.8076 48.2504C74.788 48.2621 74.7763 48.2816 74.7568 48.2894C74.7451 48.3011 74.7373 48.3207 74.7255 48.3285C74.7138 48.3402 74.706 48.3597 74.6943 48.3793C74.6826 48.3988 74.6748 48.4105 74.663 48.43C74.6513 48.4496 74.6435 48.4613 74.6435 48.4808C74.6318 48.5004 74.6318 48.5199 74.624 48.5316C74.6123 48.5511 74.6123 48.5707 74.6123 48.5824C74.6123 48.6019 74.6005 48.6215 74.6005 48.6332V48.6918V48.7504C74.6005 48.7699 74.6005 48.7816 74.6123 48.8011C74.6123 48.8207 74.624 48.8402 74.6318 48.8597C74.6318 48.8715 74.6318 48.8793 74.6435 48.891C75.0224 49.9105 75.0146 50.7191 74.6123 51.4496C74.0927 52.3793 73.5537 52.7113 72.5928 52.6996H72.5732C72.5537 52.6996 72.5342 52.6996 72.5146 52.7113C72.4951 52.7113 72.4756 52.723 72.456 52.723C72.4365 52.723 72.4248 52.7347 72.417 52.7347C72.3974 52.7465 72.3779 52.7543 72.3467 52.7543C72.3349 52.7543 72.3271 52.766 72.3154 52.7738C72.2959 52.7855 72.2646 52.8051 72.2451 52.8129C72.2334 52.8246 72.2334 52.8246 72.2256 52.8324C72.206 52.8519 72.1865 52.8715 72.167 52.891L72.1474 52.9105C72.1279 52.9301 72.1084 52.9613 72.0967 52.9808L72.0849 52.9926C71.5264 53.973 70.956 54.5317 70.2255 54.8012C69.3662 55.1215 68.3661 55.1293 67.495 54.8207C67.2255 54.7308 66.9951 54.6097 66.7841 54.4691C66.5536 54.3207 66.2646 54.348 66.0732 54.5277C65.8544 54.6058 65.413 54.7074 64.5927 54.7269C64.2919 54.7465 63.6044 54.4457 63.2529 54.1566C62.8036 53.7855 62.3427 53.4066 62.3036 51.7074C62.2919 51.3871 62.0224 51.1293 61.7138 51.1488C61.663 51.1488 61.6044 51.1606 61.5654 51.1801H61.4052C60.7646 51.1684 59.9638 51.1606 59.4169 50.1996C59.0185 49.5004 59.3153 48.4105 59.4364 48.0004C59.5263 47.6918 59.3466 47.3793 59.038 47.2895C58.7294 47.1996 58.4169 47.3793 58.3271 47.6879C58.1786 48.2192 57.7763 49.6488 58.4169 50.766C59.2177 52.1644 60.456 52.3051 61.1981 52.3246C61.327 53.7738 61.7997 54.4457 62.5379 55.0551C62.8895 55.3364 63.5887 55.727 64.2176 55.8442C64.2684 55.9028 64.3074 55.9653 64.3582 56.0239C63.4676 56.0629 62.5066 55.9848 61.5066 55.7621C61.2762 55.7114 61.0262 55.8207 60.8973 56.0239C60.8855 56.0434 59.6981 57.8442 55.9285 58.7739C55.1589 58.9653 54.4402 59.0239 53.7801 59.0043H53.7097C51.2214 58.895 49.6316 57.5746 49.5495 57.5043C49.3308 57.3129 48.991 57.3129 48.78 57.5239C48.7605 57.5434 47.0183 59.1645 44.3191 59.4223C43.6394 59.4809 42.8582 59.434 41.9988 59.2738C42.4676 57.4457 42.8777 55.3636 43.0769 52.973C44.1277 52.7933 45.0964 52.1723 45.3777 51.0824C45.5574 50.3637 44.448 50.0512 44.2683 50.7738C44.0886 51.4731 43.3699 51.8324 42.698 51.8754C41.8464 51.9262 40.8582 51.7153 40.1199 51.3051C39.9715 51.227 39.8191 51.1254 39.6902 51.0044C39.5105 50.8442 39.3816 50.645 39.1512 50.5434C38.6394 50.3247 38.241 50.7544 37.8114 50.9653C37.0731 51.3247 36.1903 51.395 35.413 51.1567C34.5848 50.9067 33.8935 50.3169 33.4716 49.5669C33.1122 48.9185 32.1122 49.4966 32.4833 50.145C33.0341 51.1333 33.9716 51.9067 35.0614 52.2348C35.0419 52.2856 35.0223 52.3442 35.0223 52.4067C35.0106 52.6059 34.8309 55.5356 34.8114 58.2973C34.3426 58.309 33.9325 58.2856 33.5809 58.2465C32.0692 58.0551 30.6707 56.2582 30.659 56.2348C30.5379 56.0747 30.3309 55.9848 30.1277 56.0161C30.0965 56.0161 27.0183 56.3872 24.5379 54.7349C22.1395 53.1333 21.8973 51.6646 21.8973 51.6568C21.8661 51.3755 21.6356 51.1685 21.3583 51.1451C21.327 51.1451 18.2802 50.9458 16.9599 49.0239C15.6083 47.063 16.038 44.024 16.038 43.9928C16.0692 43.7935 15.9872 43.5943 15.827 43.4615C15.8075 43.442 13.7762 41.7818 13.2762 39.8717C12.788 37.9733 13.9364 35.4225 13.9481 35.4029C14.0067 35.274 14.0184 35.1334 13.9794 35.0045C13.9794 35.0045 13.9091 34.774 13.8505 34.4459C14.7294 34.1451 15.5888 33.6646 16.3505 32.8756C16.4794 33.024 16.62 33.1646 16.7723 33.3053C16.8817 33.4068 17.0223 33.4537 17.163 33.4537C17.3231 33.4537 17.4716 33.3951 17.5927 33.2623C17.8036 33.024 17.7841 32.6607 17.5536 32.4537C16.6122 31.6021 16.2138 30.3248 16.5224 29.1256C16.8232 27.9537 17.6005 26.9967 17.6122 26.985C17.7411 26.8248 17.7841 26.6139 17.702 26.4147C17.6903 26.3952 16.8817 24.1764 17.8505 22.1842C17.9208 22.0357 17.9286 21.8639 17.8622 21.7037C17.8505 21.6842 17.1317 19.9146 17.7724 17.6529C17.7841 17.6529 17.7919 17.6529 17.8114 17.6412C18.8426 19.0123 21.702 22.6295 24.0419 23.6217C24.8427 23.9615 26.7021 24.5709 28.2138 24.5709C29.0537 24.5709 29.7919 24.3795 30.1826 23.8522C31.0342 22.692 29.5615 20.9616 29.0732 20.3913C26.292 17.1413 22.2841 15.0905 20.3232 14.2194C20.3349 14.0202 20.3427 13.8209 20.3232 13.6295C20.292 13.3092 20.0146 13.0788 19.6943 13.11C19.374 13.1413 19.1435 13.4186 19.1748 13.7389C19.2529 14.61 18.8545 15.6295 18.2256 16.1803C17.8857 16.4694 17.5459 16.5788 17.1944 16.5006C15.9249 16.2116 15.3936 15.5787 15.3663 15.5514C15.3545 15.5397 15.335 15.5202 15.3272 15.5123L15.2881 15.4733C15.2764 15.4616 15.2686 15.4616 15.2569 15.4537C15.2374 15.442 15.2178 15.4225 15.1983 15.4147C15.1866 15.4147 15.1788 15.403 15.1788 15.403C15.1475 15.3912 15.128 15.3834 15.1006 15.3717H15.0811C15.0499 15.36 15.0225 15.36 14.9913 15.3522H14.96H14.8819H14.8506C14.8194 15.3522 14.792 15.3639 14.7725 15.3717C14.7608 15.3717 14.753 15.3834 14.7413 15.3834C14.71 15.3952 14.6905 15.403 14.6631 15.4147H14.6514C14.1006 15.7155 13.253 16.0358 12.3819 15.903C10.6905 15.653 9.62021 13.4733 9.61241 13.4421C9.6007 13.4303 9.6007 13.4108 9.59288 13.403C9.58116 13.3835 8.54208 11.5749 9.24132 9.4811C9.25304 9.44985 9.26085 9.42251 9.26085 9.39126C9.28038 9.28188 9.74132 6.62956 13.3 6.46156C13.5695 6.44984 13.7882 6.25062 13.839 5.99281C13.8585 5.88343 14.3703 3.39121 17.4679 2.69201C20.5968 1.98107 21.9093 3.27013 21.9562 3.32092C22.0656 3.4303 22.2062 3.50061 22.3664 3.50061C22.5148 3.51233 22.6672 3.44201 22.7882 3.34045C22.8078 3.32091 24.9171 1.30135 27.1398 1.69205C29.3586 2.08267 30.5382 4.45375 30.55 4.48115C30.6204 4.62177 30.7493 4.73115 30.9016 4.78193C31.05 4.83271 31.2219 4.81318 31.3625 4.73115C31.4133 4.6999 32.7023 3.96943 35.093 4.6413C37.4133 5.28192 37.8742 6.9108 37.8938 6.9811C37.9446 7.19204 38.1126 7.35219 38.3235 7.40298C38.5345 7.45376 38.7532 7.38345 38.8938 7.21157C38.9134 7.19204 40.7336 5.07097 43.925 5.41077C46.8938 5.73108 47.2453 6.96937 47.2453 6.96937C47.2844 7.19984 47.4758 7.39125 47.7063 7.43031C47.9368 7.46937 48.175 7.37172 48.3078 7.16859C48.3664 7.06703 49.8586 4.71939 52.7961 4.59049C55.6945 4.46158 57.2375 7.18029 57.2961 7.30139C57.386 7.46155 57.5344 7.57092 57.718 7.59045C57.8977 7.6217 58.0774 7.5592 58.2063 7.43029C58.2766 7.35998 59.9954 5.71939 62.5071 6.94201C65.0852 8.20371 65.3274 10.9303 65.3352 11.0436C65.3469 11.2038 65.425 11.3522 65.554 11.4538C65.6829 11.5553 65.843 11.5944 66.0032 11.5632C66.1126 11.5436 68.804 11.1139 70.7024 13.2351C72.6321 15.3953 72.511 17.1765 72.511 17.2546C72.4797 17.5553 72.6907 17.8249 72.9914 17.8756C73.011 17.8756 75.4133 18.3171 76.3703 20.4459C77.3586 22.6451 75.9719 26.3248 75.9602 26.3678C75.8821 26.5788 75.9289 26.8288 76.0891 26.9889C76.1203 27.0202 78.7493 29.6491 79.1282 32.8483C79.4212 35.8835 78.5419 38.0003 75.831 40.6722ZM82.8818 27.5512C82.6826 27.6801 82.581 27.9418 82.6435 28.1723C82.6435 28.1918 83.0927 30.0317 82.124 31.0004C81.4326 31.6918 80.5459 31.7699 80.0537 31.7504C79.4521 29.1723 77.7646 27.1293 77.1045 26.4106C77.456 25.3598 78.3662 22.1801 77.3662 19.9614C77.0771 19.3129 76.6865 18.7895 76.2646 18.3716C77.0654 18.1528 78.2646 17.9302 79.3427 18.2231C81.0732 18.6841 81.7529 20.434 81.7529 20.4419C81.8037 20.5904 81.9248 20.7115 82.0615 20.7701C82.1513 20.8091 84.3623 21.8013 84.4717 24.0709C84.5811 26.3834 82.9404 27.5121 82.8818 27.5512Z"/>
</mask>
<path d="M85.6191 24.0307C85.498 21.4721 83.4277 20.1909 82.7402 19.8315C82.4589 19.2299 81.5488 17.6323 79.6386 17.1206C77.8378 16.6401 75.8886 17.2495 75.1581 17.5307C74.5565 17.1714 73.9862 16.9604 73.5995 16.8511C73.5409 16.0307 73.1776 14.3316 71.5097 12.4605C69.7285 10.48 67.4081 10.3199 66.3378 10.3707C66.119 9.31206 65.3768 7.08156 62.9472 5.90186C60.7988 4.85106 58.916 5.47217 57.8769 6.17139C57.1659 5.19092 55.4277 3.31199 52.6855 3.44089C50.2167 3.55027 48.6074 4.95259 47.8261 5.83929C47.2948 5.22991 46.205 4.51119 43.9863 4.26899C41.3379 3.98774 39.4863 5.12055 38.5879 5.87059C38.1465 5.12059 37.209 4.05029 35.3496 3.54249C33.3691 2.99171 31.9785 3.27296 31.2598 3.51124C30.7285 2.65968 29.42 0.95264 27.2793 0.56984C25.0801 0.17922 23.1074 1.53078 22.3105 2.19094C21.58 1.70266 19.9316 0.95264 17.1621 1.58156C14.1113 2.27297 13.084 4.42136 12.7715 5.35106C8.94337 5.74169 8.18167 8.69086 8.08007 9.15966C7.58007 10.6792 7.81835 12.0699 8.0996 12.9605C6.6582 13.8394 2.9512 16.2417 2.6894 18.0699C2.58784 18.7417 2.84956 19.148 3.08784 19.3785C3.45893 19.7495 4.05659 19.9292 4.86904 19.9292C4.94717 19.9292 5.0292 19.9292 5.11904 19.9175C3.20884 23.2066 1.25964 27.148 0.669843 30.3275C0.259683 32.5384 0.591719 34.1478 1.65031 35.097C2.43937 35.808 3.49011 36.058 4.61121 36.0462C5.93151 36.0462 7.34171 35.7064 8.48231 35.3666C9.1034 35.1869 9.83391 35.1048 10.6112 35.0384C11.2597 34.9681 11.9706 34.8978 12.6893 34.7494C12.7206 34.8978 12.7479 35.0306 12.7674 35.1283C12.4784 35.8197 11.6072 38.1869 12.119 40.1791C12.5995 42.0502 14.1893 43.6088 14.8104 44.1674C14.7206 45.0892 14.6112 47.7572 15.9588 49.6986C17.2869 51.6205 19.8182 52.14 20.8299 52.2689C21.0682 52.9603 21.7791 54.3275 23.8494 55.7103C24.4978 56.1517 25.1775 56.4603 25.8494 56.679C25.8689 57.6087 25.8299 60.0696 24.9783 62.3587C24.0486 64.8587 23.0681 66.1595 22.4197 67.0071C21.8806 67.7181 21.49 68.2259 21.49 68.929C21.49 69.3275 21.6502 69.6907 21.9588 69.9485C22.4002 70.3274 23.1502 70.5188 24.24 70.5188C24.8806 70.5188 25.6306 70.4485 26.5095 70.3196C28.7283 69.9915 29.4392 69.0696 29.6501 66.1985C29.8415 63.6087 30.9392 60.1087 31.4509 58.5891C32.0095 58.9797 32.6814 59.3 33.3923 59.3899C33.7204 59.429 34.0915 59.4485 34.5134 59.4485H34.7751C34.7868 60.6985 34.8337 61.8274 34.9665 62.5071C35.6071 65.9173 35.3259 68.7883 34.1071 71.2883C33.4977 72.5266 33.8376 73.3664 34.2282 73.8469C34.9587 74.7453 36.3884 75.0657 37.6579 75.0657C38.2477 75.0657 38.7985 74.9954 39.236 74.886C40.236 74.6243 41.5758 73.8743 42.1071 72.5969C42.3571 71.9758 42.5056 70.968 41.7556 69.7375C40.4118 67.55 40.5603 64.0813 41.2595 61.7805C41.3884 61.3391 41.529 60.8821 41.6696 60.4016C42.3884 60.5422 43.068 60.6125 43.6891 60.6125C43.9391 60.6125 44.1696 60.6008 44.4001 60.5813C46.7517 60.3625 48.4509 59.2532 49.1696 58.6907C49.8297 59.1399 51.2712 59.9719 53.2477 60.1516C53.3766 60.7727 53.5875 61.9797 53.5875 63.1008C53.5875 63.8313 53.357 64.2219 53.0289 64.761C52.7203 65.2805 52.3687 65.8626 52.1695 66.8313C52.0406 67.5032 52.1578 68.0227 52.5289 68.3821C52.8805 68.7219 53.3805 68.843 53.9391 68.843C54.6579 68.843 55.4899 68.6516 56.2594 68.4641L56.3493 68.4446C57.2594 68.2336 58.0485 67.6243 58.5095 66.7844C58.9977 65.8859 59.068 64.8352 58.7087 63.8235C58.2282 62.4719 58.4704 59.9837 58.568 59.1047C60.2672 58.343 61.1774 57.4641 61.5797 56.9953C62.8297 57.2258 64.0211 57.2765 65.1188 57.1359C66.15 58.5773 66.7672 59.8664 66.5407 62.6867C66.3025 65.675 66.0095 66.8078 65.7322 67.8976C65.572 68.5187 65.4236 69.1085 65.2907 69.9992C65.029 71.7609 65.24 72.8586 65.9626 73.4601C66.3532 73.7882 66.8532 73.9093 67.3845 73.9093C68.115 73.9093 68.9236 73.6789 69.6853 73.4289C72.5837 72.4484 73.3845 66.7805 72.6736 61.6909C72.283 58.9018 72.6736 56.3315 73.0838 53.8511C74.2049 53.73 74.9744 53.1714 75.6033 52.0308C76.115 51.1011 76.1931 50.0816 75.8338 48.9019C76.4353 48.3628 76.865 47.7027 77.1229 46.9331C77.9314 44.4917 77.2439 42.1323 76.9041 41.2339C79.1736 38.9331 80.5838 36.5933 80.2244 32.9253C80.9432 32.9135 82.033 32.726 82.9236 31.8472C84.0447 30.7261 83.9353 29.0464 83.822 28.2964C84.4392 27.7417 85.7324 26.351 85.6191 24.0307ZM3.88107 18.5502C3.84982 18.5189 3.79123 18.4603 3.82248 18.2299C3.97092 17.2182 6.51388 15.2807 8.54128 14.0307C8.57253 14.0893 8.61941 14.1791 8.6819 14.2807C8.02174 15.2299 6.971 16.8002 5.8303 18.6791C4.6897 18.8588 4.06077 18.7299 3.88107 18.5502ZM10.5022 33.8902C9.67405 33.9683 8.88107 34.0504 8.16237 34.2613C7.10377 34.5699 3.85377 35.5308 2.42407 34.2417C1.68579 33.5699 1.47485 32.3315 1.80298 30.5308C2.73267 25.4605 7.38108 18.2298 9.39278 15.2928C10.0139 16.0428 10.9319 16.8631 12.1545 17.0428C12.9748 17.1639 13.8654 17.0116 14.7561 16.6132C15.0842 16.8944 15.6662 17.2928 16.5647 17.5428C16.0452 19.6131 16.4631 21.2811 16.6662 21.9022C15.8459 23.8006 16.2678 25.7538 16.4866 26.5038C16.1858 26.9257 15.635 27.7929 15.3655 28.8319C15.0959 29.871 15.2248 30.9413 15.674 31.8827C14.885 32.7734 13.9748 33.2343 13.0021 33.4921H12.9904C12.1701 33.7226 11.3303 33.8121 10.5022 33.8902ZM20.0217 15.3902C21.7912 16.1988 25.5803 18.1714 28.1428 21.1597C29.2209 22.4214 29.303 23.0386 29.1936 23.1909C28.842 23.6596 26.5334 23.4721 24.4319 22.5815C22.7835 21.8823 20.5022 19.3823 18.8108 17.1518C18.8498 17.1206 18.8811 17.0932 18.9202 17.062C19.4006 16.6401 19.7795 16.0426 20.0217 15.3902ZM28.5022 66.1092C28.303 68.7498 27.7912 68.9608 26.342 69.1795C24.1428 69.5076 23.0217 69.3397 22.7131 69.0701C22.6623 69.0193 22.6428 68.992 22.6428 68.9217C22.6428 68.6209 22.8732 68.3123 23.3342 67.7029C24.0256 66.7927 25.0725 65.4138 26.0647 62.7537C26.8928 60.5154 27.0139 58.1756 27.0139 56.9842C28.2951 57.2537 29.385 57.2225 29.9045 57.1951C30.0451 57.3553 30.2443 57.574 30.4943 57.8162C30.0724 59.0428 28.7327 63.0896 28.5022 66.1092ZM40.7522 70.3397C41.1506 70.9999 41.2405 71.6209 41.0217 72.1678C40.6819 72.9881 39.7014 73.578 38.9319 73.7772C37.6702 74.0975 35.721 73.8866 35.1038 73.1288C35.0022 73.0077 34.7132 72.6483 35.1233 71.8085C36.4514 69.078 36.7639 65.9687 36.0843 62.3085C35.6741 60.1171 36.1233 52.5701 36.1233 52.4881V52.4374C36.5022 52.4569 36.8733 52.4256 37.2522 52.3475C37.5804 52.2772 37.8929 52.1678 38.1936 52.0389C38.3929 51.9491 38.5647 51.8397 38.7444 51.7303C38.7835 51.7694 38.8226 51.8202 38.8733 51.8593C39.0022 51.9686 39.1351 52.0702 39.2718 52.1678C39.553 52.3593 39.8616 52.4882 40.1702 52.6093C40.7093 52.8085 41.2991 52.9374 41.8811 52.9999C41.5921 56.3983 40.8499 59.1796 40.1506 61.4491C39.3616 64.0624 39.2326 67.8319 40.7522 70.3397ZM57.6392 64.1913C57.8892 64.8905 57.8384 65.6132 57.5103 66.2225C57.2095 66.7811 56.69 67.1717 56.1001 67.3123L56.0102 67.3318C55.2485 67.5115 53.6821 67.8826 53.3305 67.5428C53.2602 67.4724 53.2524 67.2928 53.2993 67.0428C53.4477 66.2732 53.7407 65.7928 54.018 65.3319C54.3696 64.742 54.7368 64.1327 54.7368 63.0819C54.7368 62.0038 54.5571 60.8631 54.4165 60.1522C54.9672 60.1209 55.5571 60.0428 56.1782 59.8904C56.6079 59.7811 57.0063 59.6717 57.3774 59.5389C57.2719 60.7694 57.1704 62.871 57.6392 64.1913ZM69.3232 72.3202C67.9326 72.7889 67.0849 72.871 66.7138 72.5585C66.4638 72.3475 66.2138 71.7577 66.4521 70.1483C66.5731 69.3201 66.7216 68.7577 66.8739 68.1678C67.1552 67.078 67.4755 65.8475 67.7255 62.7576C68.0146 59.117 66.9755 57.6092 65.6239 55.8162C65.952 55.7654 66.2255 55.7068 66.452 55.6248C66.6512 55.7341 66.8739 55.8357 67.1005 55.9138C67.6512 56.113 68.2294 56.2029 68.8114 56.2029C69.4207 56.2029 70.0302 56.0935 70.6122 55.8826C71.034 55.7224 71.3934 55.5037 71.702 55.2615C71.4012 57.3318 71.2137 59.492 71.5418 61.8318C72.2605 67.0506 71.292 71.6603 69.3232 72.3202ZM75.831 40.6722C75.6591 40.8441 75.6122 41.1019 75.7099 41.3206C75.7216 41.3519 76.9013 43.9612 76.038 46.5511C75.8075 47.2308 75.4091 47.8011 74.8271 48.2308L74.8076 48.2504C74.788 48.2621 74.7763 48.2816 74.7568 48.2894C74.7451 48.3011 74.7373 48.3207 74.7255 48.3285C74.7138 48.3402 74.706 48.3597 74.6943 48.3793C74.6826 48.3988 74.6748 48.4105 74.663 48.43C74.6513 48.4496 74.6435 48.4613 74.6435 48.4808C74.6318 48.5004 74.6318 48.5199 74.624 48.5316C74.6123 48.5511 74.6123 48.5707 74.6123 48.5824C74.6123 48.6019 74.6005 48.6215 74.6005 48.6332V48.6918V48.7504C74.6005 48.7699 74.6005 48.7816 74.6123 48.8011C74.6123 48.8207 74.624 48.8402 74.6318 48.8597C74.6318 48.8715 74.6318 48.8793 74.6435 48.891C75.0224 49.9105 75.0146 50.7191 74.6123 51.4496C74.0927 52.3793 73.5537 52.7113 72.5928 52.6996H72.5732C72.5537 52.6996 72.5342 52.6996 72.5146 52.7113C72.4951 52.7113 72.4756 52.723 72.456 52.723C72.4365 52.723 72.4248 52.7347 72.417 52.7347C72.3974 52.7465 72.3779 52.7543 72.3467 52.7543C72.3349 52.7543 72.3271 52.766 72.3154 52.7738C72.2959 52.7855 72.2646 52.8051 72.2451 52.8129C72.2334 52.8246 72.2334 52.8246 72.2256 52.8324C72.206 52.8519 72.1865 52.8715 72.167 52.891L72.1474 52.9105C72.1279 52.9301 72.1084 52.9613 72.0967 52.9808L72.0849 52.9926C71.5264 53.973 70.956 54.5317 70.2255 54.8012C69.3662 55.1215 68.3661 55.1293 67.495 54.8207C67.2255 54.7308 66.9951 54.6097 66.7841 54.4691C66.5536 54.3207 66.2646 54.348 66.0732 54.5277C65.8544 54.6058 65.413 54.7074 64.5927 54.7269C64.2919 54.7465 63.6044 54.4457 63.2529 54.1566C62.8036 53.7855 62.3427 53.4066 62.3036 51.7074C62.2919 51.3871 62.0224 51.1293 61.7138 51.1488C61.663 51.1488 61.6044 51.1606 61.5654 51.1801H61.4052C60.7646 51.1684 59.9638 51.1606 59.4169 50.1996C59.0185 49.5004 59.3153 48.4105 59.4364 48.0004C59.5263 47.6918 59.3466 47.3793 59.038 47.2895C58.7294 47.1996 58.4169 47.3793 58.3271 47.6879C58.1786 48.2192 57.7763 49.6488 58.4169 50.766C59.2177 52.1644 60.456 52.3051 61.1981 52.3246C61.327 53.7738 61.7997 54.4457 62.5379 55.0551C62.8895 55.3364 63.5887 55.727 64.2176 55.8442C64.2684 55.9028 64.3074 55.9653 64.3582 56.0239C63.4676 56.0629 62.5066 55.9848 61.5066 55.7621C61.2762 55.7114 61.0262 55.8207 60.8973 56.0239C60.8855 56.0434 59.6981 57.8442 55.9285 58.7739C55.1589 58.9653 54.4402 59.0239 53.7801 59.0043H53.7097C51.2214 58.895 49.6316 57.5746 49.5495 57.5043C49.3308 57.3129 48.991 57.3129 48.78 57.5239C48.7605 57.5434 47.0183 59.1645 44.3191 59.4223C43.6394 59.4809 42.8582 59.434 41.9988 59.2738C42.4676 57.4457 42.8777 55.3636 43.0769 52.973C44.1277 52.7933 45.0964 52.1723 45.3777 51.0824C45.5574 50.3637 44.448 50.0512 44.2683 50.7738C44.0886 51.4731 43.3699 51.8324 42.698 51.8754C41.8464 51.9262 40.8582 51.7153 40.1199 51.3051C39.9715 51.227 39.8191 51.1254 39.6902 51.0044C39.5105 50.8442 39.3816 50.645 39.1512 50.5434C38.6394 50.3247 38.241 50.7544 37.8114 50.9653C37.0731 51.3247 36.1903 51.395 35.413 51.1567C34.5848 50.9067 33.8935 50.3169 33.4716 49.5669C33.1122 48.9185 32.1122 49.4966 32.4833 50.145C33.0341 51.1333 33.9716 51.9067 35.0614 52.2348C35.0419 52.2856 35.0223 52.3442 35.0223 52.4067C35.0106 52.6059 34.8309 55.5356 34.8114 58.2973C34.3426 58.309 33.9325 58.2856 33.5809 58.2465C32.0692 58.0551 30.6707 56.2582 30.659 56.2348C30.5379 56.0747 30.3309 55.9848 30.1277 56.0161C30.0965 56.0161 27.0183 56.3872 24.5379 54.7349C22.1395 53.1333 21.8973 51.6646 21.8973 51.6568C21.8661 51.3755 21.6356 51.1685 21.3583 51.1451C21.327 51.1451 18.2802 50.9458 16.9599 49.0239C15.6083 47.063 16.038 44.024 16.038 43.9928C16.0692 43.7935 15.9872 43.5943 15.827 43.4615C15.8075 43.442 13.7762 41.7818 13.2762 39.8717C12.788 37.9733 13.9364 35.4225 13.9481 35.4029C14.0067 35.274 14.0184 35.1334 13.9794 35.0045C13.9794 35.0045 13.9091 34.774 13.8505 34.4459C14.7294 34.1451 15.5888 33.6646 16.3505 32.8756C16.4794 33.024 16.62 33.1646 16.7723 33.3053C16.8817 33.4068 17.0223 33.4537 17.163 33.4537C17.3231 33.4537 17.4716 33.3951 17.5927 33.2623C17.8036 33.024 17.7841 32.6607 17.5536 32.4537C16.6122 31.6021 16.2138 30.3248 16.5224 29.1256C16.8232 27.9537 17.6005 26.9967 17.6122 26.985C17.7411 26.8248 17.7841 26.6139 17.702 26.4147C17.6903 26.3952 16.8817 24.1764 17.8505 22.1842C17.9208 22.0357 17.9286 21.8639 17.8622 21.7037C17.8505 21.6842 17.1317 19.9146 17.7724 17.6529C17.7841 17.6529 17.7919 17.6529 17.8114 17.6412C18.8426 19.0123 21.702 22.6295 24.0419 23.6217C24.8427 23.9615 26.7021 24.5709 28.2138 24.5709C29.0537 24.5709 29.7919 24.3795 30.1826 23.8522C31.0342 22.692 29.5615 20.9616 29.0732 20.3913C26.292 17.1413 22.2841 15.0905 20.3232 14.2194C20.3349 14.0202 20.3427 13.8209 20.3232 13.6295C20.292 13.3092 20.0146 13.0788 19.6943 13.11C19.374 13.1413 19.1435 13.4186 19.1748 13.7389C19.2529 14.61 18.8545 15.6295 18.2256 16.1803C17.8857 16.4694 17.5459 16.5788 17.1944 16.5006C15.9249 16.2116 15.3936 15.5787 15.3663 15.5514C15.3545 15.5397 15.335 15.5202 15.3272 15.5123L15.2881 15.4733C15.2764 15.4616 15.2686 15.4616 15.2569 15.4537C15.2374 15.442 15.2178 15.4225 15.1983 15.4147C15.1866 15.4147 15.1788 15.403 15.1788 15.403C15.1475 15.3912 15.128 15.3834 15.1006 15.3717H15.0811C15.0499 15.36 15.0225 15.36 14.9913 15.3522H14.96H14.8819H14.8506C14.8194 15.3522 14.792 15.3639 14.7725 15.3717C14.7608 15.3717 14.753 15.3834 14.7413 15.3834C14.71 15.3952 14.6905 15.403 14.6631 15.4147H14.6514C14.1006 15.7155 13.253 16.0358 12.3819 15.903C10.6905 15.653 9.62021 13.4733 9.61241 13.4421C9.6007 13.4303 9.6007 13.4108 9.59288 13.403C9.58116 13.3835 8.54208 11.5749 9.24132 9.4811C9.25304 9.44985 9.26085 9.42251 9.26085 9.39126C9.28038 9.28188 9.74132 6.62956 13.3 6.46156C13.5695 6.44984 13.7882 6.25062 13.839 5.99281C13.8585 5.88343 14.3703 3.39121 17.4679 2.69201C20.5968 1.98107 21.9093 3.27013 21.9562 3.32092C22.0656 3.4303 22.2062 3.50061 22.3664 3.50061C22.5148 3.51233 22.6672 3.44201 22.7882 3.34045C22.8078 3.32091 24.9171 1.30135 27.1398 1.69205C29.3586 2.08267 30.5382 4.45375 30.55 4.48115C30.6204 4.62177 30.7493 4.73115 30.9016 4.78193C31.05 4.83271 31.2219 4.81318 31.3625 4.73115C31.4133 4.6999 32.7023 3.96943 35.093 4.6413C37.4133 5.28192 37.8742 6.9108 37.8938 6.9811C37.9446 7.19204 38.1126 7.35219 38.3235 7.40298C38.5345 7.45376 38.7532 7.38345 38.8938 7.21157C38.9134 7.19204 40.7336 5.07097 43.925 5.41077C46.8938 5.73108 47.2453 6.96937 47.2453 6.96937C47.2844 7.19984 47.4758 7.39125 47.7063 7.43031C47.9368 7.46937 48.175 7.37172 48.3078 7.16859C48.3664 7.06703 49.8586 4.71939 52.7961 4.59049C55.6945 4.46158 57.2375 7.18029 57.2961 7.30139C57.386 7.46155 57.5344 7.57092 57.718 7.59045C57.8977 7.6217 58.0774 7.5592 58.2063 7.43029C58.2766 7.35998 59.9954 5.71939 62.5071 6.94201C65.0852 8.20371 65.3274 10.9303 65.3352 11.0436C65.3469 11.2038 65.425 11.3522 65.554 11.4538C65.6829 11.5553 65.843 11.5944 66.0032 11.5632C66.1126 11.5436 68.804 11.1139 70.7024 13.2351C72.6321 15.3953 72.511 17.1765 72.511 17.2546C72.4797 17.5553 72.6907 17.8249 72.9914 17.8756C73.011 17.8756 75.4133 18.3171 76.3703 20.4459C77.3586 22.6451 75.9719 26.3248 75.9602 26.3678C75.8821 26.5788 75.9289 26.8288 76.0891 26.9889C76.1203 27.0202 78.7493 29.6491 79.1282 32.8483C79.4212 35.8835 78.5419 38.0003 75.831 40.6722ZM82.8818 27.5512C82.6826 27.6801 82.581 27.9418 82.6435 28.1723C82.6435 28.1918 83.0927 30.0317 82.124 31.0004C81.4326 31.6918 80.5459 31.7699 80.0537 31.7504C79.4521 29.1723 77.7646 27.1293 77.1045 26.4106C77.456 25.3598 78.3662 22.1801 77.3662 19.9614C77.0771 19.3129 76.6865 18.7895 76.2646 18.3716C77.0654 18.1528 78.2646 17.9302 79.3427 18.2231C81.0732 18.6841 81.7529 20.434 81.7529 20.4419C81.8037 20.5904 81.9248 20.7115 82.0615 20.7701C82.1513 20.8091 84.3623 21.8013 84.4717 24.0709C84.5811 26.3834 82.9404 27.5121 82.8818 27.5512Z" fill="white"/>
<path d="M85.6191 24.0307C85.498 21.4721 83.4277 20.1909 82.7402 19.8315C82.4589 19.2299 81.5488 17.6323 79.6386 17.1206C77.8378 16.6401 75.8886 17.2495 75.1581 17.5307C74.5565 17.1714 73.9862 16.9604 73.5995 16.8511C73.5409 16.0307 73.1776 14.3316 71.5097 12.4605C69.7285 10.48 67.4081 10.3199 66.3378 10.3707C66.119 9.31206 65.3768 7.08156 62.9472 5.90186C60.7988 4.85106 58.916 5.47217 57.8769 6.17139C57.1659 5.19092 55.4277 3.31199 52.6855 3.44089C50.2167 3.55027 48.6074 4.95259 47.8261 5.83929C47.2948 5.22991 46.205 4.51119 43.9863 4.26899C41.3379 3.98774 39.4863 5.12055 38.5879 5.87059C38.1465 5.12059 37.209 4.05029 35.3496 3.54249C33.3691 2.99171 31.9785 3.27296 31.2598 3.51124C30.7285 2.65968 29.42 0.95264 27.2793 0.56984C25.0801 0.17922 23.1074 1.53078 22.3105 2.19094C21.58 1.70266 19.9316 0.95264 17.1621 1.58156C14.1113 2.27297 13.084 4.42136 12.7715 5.35106C8.94337 5.74169 8.18167 8.69086 8.08007 9.15966C7.58007 10.6792 7.81835 12.0699 8.0996 12.9605C6.6582 13.8394 2.9512 16.2417 2.6894 18.0699C2.58784 18.7417 2.84956 19.148 3.08784 19.3785C3.45893 19.7495 4.05659 19.9292 4.86904 19.9292C4.94717 19.9292 5.0292 19.9292 5.11904 19.9175C3.20884 23.2066 1.25964 27.148 0.669843 30.3275C0.259683 32.5384 0.591719 34.1478 1.65031 35.097C2.43937 35.808 3.49011 36.058 4.61121 36.0462C5.93151 36.0462 7.34171 35.7064 8.48231 35.3666C9.1034 35.1869 9.83391 35.1048 10.6112 35.0384C11.2597 34.9681 11.9706 34.8978 12.6893 34.7494C12.7206 34.8978 12.7479 35.0306 12.7674 35.1283C12.4784 35.8197 11.6072 38.1869 12.119 40.1791C12.5995 42.0502 14.1893 43.6088 14.8104 44.1674C14.7206 45.0892 14.6112 47.7572 15.9588 49.6986C17.2869 51.6205 19.8182 52.14 20.8299 52.2689C21.0682 52.9603 21.7791 54.3275 23.8494 55.7103C24.4978 56.1517 25.1775 56.4603 25.8494 56.679C25.8689 57.6087 25.8299 60.0696 24.9783 62.3587C24.0486 64.8587 23.0681 66.1595 22.4197 67.0071C21.8806 67.7181 21.49 68.2259 21.49 68.929C21.49 69.3275 21.6502 69.6907 21.9588 69.9485C22.4002 70.3274 23.1502 70.5188 24.24 70.5188C24.8806 70.5188 25.6306 70.4485 26.5095 70.3196C28.7283 69.9915 29.4392 69.0696 29.6501 66.1985C29.8415 63.6087 30.9392 60.1087 31.4509 58.5891C32.0095 58.9797 32.6814 59.3 33.3923 59.3899C33.7204 59.429 34.0915 59.4485 34.5134 59.4485H34.7751C34.7868 60.6985 34.8337 61.8274 34.9665 62.5071C35.6071 65.9173 35.3259 68.7883 34.1071 71.2883C33.4977 72.5266 33.8376 73.3664 34.2282 73.8469C34.9587 74.7453 36.3884 75.0657 37.6579 75.0657C38.2477 75.0657 38.7985 74.9954 39.236 74.886C40.236 74.6243 41.5758 73.8743 42.1071 72.5969C42.3571 71.9758 42.5056 70.968 41.7556 69.7375C40.4118 67.55 40.5603 64.0813 41.2595 61.7805C41.3884 61.3391 41.529 60.8821 41.6696 60.4016C42.3884 60.5422 43.068 60.6125 43.6891 60.6125C43.9391 60.6125 44.1696 60.6008 44.4001 60.5813C46.7517 60.3625 48.4509 59.2532 49.1696 58.6907C49.8297 59.1399 51.2712 59.9719 53.2477 60.1516C53.3766 60.7727 53.5875 61.9797 53.5875 63.1008C53.5875 63.8313 53.357 64.2219 53.0289 64.761C52.7203 65.2805 52.3687 65.8626 52.1695 66.8313C52.0406 67.5032 52.1578 68.0227 52.5289 68.3821C52.8805 68.7219 53.3805 68.843 53.9391 68.843C54.6579 68.843 55.4899 68.6516 56.2594 68.4641L56.3493 68.4446C57.2594 68.2336 58.0485 67.6243 58.5095 66.7844C58.9977 65.8859 59.068 64.8352 58.7087 63.8235C58.2282 62.4719 58.4704 59.9837 58.568 59.1047C60.2672 58.343 61.1774 57.4641 61.5797 56.9953C62.8297 57.2258 64.0211 57.2765 65.1188 57.1359C66.15 58.5773 66.7672 59.8664 66.5407 62.6867C66.3025 65.675 66.0095 66.8078 65.7322 67.8976C65.572 68.5187 65.4236 69.1085 65.2907 69.9992C65.029 71.7609 65.24 72.8586 65.9626 73.4601C66.3532 73.7882 66.8532 73.9093 67.3845 73.9093C68.115 73.9093 68.9236 73.6789 69.6853 73.4289C72.5837 72.4484 73.3845 66.7805 72.6736 61.6909C72.283 58.9018 72.6736 56.3315 73.0838 53.8511C74.2049 53.73 74.9744 53.1714 75.6033 52.0308C76.115 51.1011 76.1931 50.0816 75.8338 48.9019C76.4353 48.3628 76.865 47.7027 77.1229 46.9331C77.9314 44.4917 77.2439 42.1323 76.9041 41.2339C79.1736 38.9331 80.5838 36.5933 80.2244 32.9253C80.9432 32.9135 82.033 32.726 82.9236 31.8472C84.0447 30.7261 83.9353 29.0464 83.822 28.2964C84.4392 27.7417 85.7324 26.351 85.6191 24.0307ZM3.88107 18.5502C3.84982 18.5189 3.79123 18.4603 3.82248 18.2299C3.97092 17.2182 6.51388 15.2807 8.54128 14.0307C8.57253 14.0893 8.61941 14.1791 8.6819 14.2807C8.02174 15.2299 6.971 16.8002 5.8303 18.6791C4.6897 18.8588 4.06077 18.7299 3.88107 18.5502ZM10.5022 33.8902C9.67405 33.9683 8.88107 34.0504 8.16237 34.2613C7.10377 34.5699 3.85377 35.5308 2.42407 34.2417C1.68579 33.5699 1.47485 32.3315 1.80298 30.5308C2.73267 25.4605 7.38108 18.2298 9.39278 15.2928C10.0139 16.0428 10.9319 16.8631 12.1545 17.0428C12.9748 17.1639 13.8654 17.0116 14.7561 16.6132C15.0842 16.8944 15.6662 17.2928 16.5647 17.5428C16.0452 19.6131 16.4631 21.2811 16.6662 21.9022C15.8459 23.8006 16.2678 25.7538 16.4866 26.5038C16.1858 26.9257 15.635 27.7929 15.3655 28.8319C15.0959 29.871 15.2248 30.9413 15.674 31.8827C14.885 32.7734 13.9748 33.2343 13.0021 33.4921H12.9904C12.1701 33.7226 11.3303 33.8121 10.5022 33.8902ZM20.0217 15.3902C21.7912 16.1988 25.5803 18.1714 28.1428 21.1597C29.2209 22.4214 29.303 23.0386 29.1936 23.1909C28.842 23.6596 26.5334 23.4721 24.4319 22.5815C22.7835 21.8823 20.5022 19.3823 18.8108 17.1518C18.8498 17.1206 18.8811 17.0932 18.9202 17.062C19.4006 16.6401 19.7795 16.0426 20.0217 15.3902ZM28.5022 66.1092C28.303 68.7498 27.7912 68.9608 26.342 69.1795C24.1428 69.5076 23.0217 69.3397 22.7131 69.0701C22.6623 69.0193 22.6428 68.992 22.6428 68.9217C22.6428 68.6209 22.8732 68.3123 23.3342 67.7029C24.0256 66.7927 25.0725 65.4138 26.0647 62.7537C26.8928 60.5154 27.0139 58.1756 27.0139 56.9842C28.2951 57.2537 29.385 57.2225 29.9045 57.1951C30.0451 57.3553 30.2443 57.574 30.4943 57.8162C30.0724 59.0428 28.7327 63.0896 28.5022 66.1092ZM40.7522 70.3397C41.1506 70.9999 41.2405 71.6209 41.0217 72.1678C40.6819 72.9881 39.7014 73.578 38.9319 73.7772C37.6702 74.0975 35.721 73.8866 35.1038 73.1288C35.0022 73.0077 34.7132 72.6483 35.1233 71.8085C36.4514 69.078 36.7639 65.9687 36.0843 62.3085C35.6741 60.1171 36.1233 52.5701 36.1233 52.4881V52.4374C36.5022 52.4569 36.8733 52.4256 37.2522 52.3475C37.5804 52.2772 37.8929 52.1678 38.1936 52.0389C38.3929 51.9491 38.5647 51.8397 38.7444 51.7303C38.7835 51.7694 38.8226 51.8202 38.8733 51.8593C39.0022 51.9686 39.1351 52.0702 39.2718 52.1678C39.553 52.3593 39.8616 52.4882 40.1702 52.6093C40.7093 52.8085 41.2991 52.9374 41.8811 52.9999C41.5921 56.3983 40.8499 59.1796 40.1506 61.4491C39.3616 64.0624 39.2326 67.8319 40.7522 70.3397ZM57.6392 64.1913C57.8892 64.8905 57.8384 65.6132 57.5103 66.2225C57.2095 66.7811 56.69 67.1717 56.1001 67.3123L56.0102 67.3318C55.2485 67.5115 53.6821 67.8826 53.3305 67.5428C53.2602 67.4724 53.2524 67.2928 53.2993 67.0428C53.4477 66.2732 53.7407 65.7928 54.018 65.3319C54.3696 64.742 54.7368 64.1327 54.7368 63.0819C54.7368 62.0038 54.5571 60.8631 54.4165 60.1522C54.9672 60.1209 55.5571 60.0428 56.1782 59.8904C56.6079 59.7811 57.0063 59.6717 57.3774 59.5389C57.2719 60.7694 57.1704 62.871 57.6392 64.1913ZM69.3232 72.3202C67.9326 72.7889 67.0849 72.871 66.7138 72.5585C66.4638 72.3475 66.2138 71.7577 66.4521 70.1483C66.5731 69.3201 66.7216 68.7577 66.8739 68.1678C67.1552 67.078 67.4755 65.8475 67.7255 62.7576C68.0146 59.117 66.9755 57.6092 65.6239 55.8162C65.952 55.7654 66.2255 55.7068 66.452 55.6248C66.6512 55.7341 66.8739 55.8357 67.1005 55.9138C67.6512 56.113 68.2294 56.2029 68.8114 56.2029C69.4207 56.2029 70.0302 56.0935 70.6122 55.8826C71.034 55.7224 71.3934 55.5037 71.702 55.2615C71.4012 57.3318 71.2137 59.492 71.5418 61.8318C72.2605 67.0506 71.292 71.6603 69.3232 72.3202ZM75.831 40.6722C75.6591 40.8441 75.6122 41.1019 75.7099 41.3206C75.7216 41.3519 76.9013 43.9612 76.038 46.5511C75.8075 47.2308 75.4091 47.8011 74.8271 48.2308L74.8076 48.2504C74.788 48.2621 74.7763 48.2816 74.7568 48.2894C74.7451 48.3011 74.7373 48.3207 74.7255 48.3285C74.7138 48.3402 74.706 48.3597 74.6943 48.3793C74.6826 48.3988 74.6748 48.4105 74.663 48.43C74.6513 48.4496 74.6435 48.4613 74.6435 48.4808C74.6318 48.5004 74.6318 48.5199 74.624 48.5316C74.6123 48.5511 74.6123 48.5707 74.6123 48.5824C74.6123 48.6019 74.6005 48.6215 74.6005 48.6332V48.6918V48.7504C74.6005 48.7699 74.6005 48.7816 74.6123 48.8011C74.6123 48.8207 74.624 48.8402 74.6318 48.8597C74.6318 48.8715 74.6318 48.8793 74.6435 48.891C75.0224 49.9105 75.0146 50.7191 74.6123 51.4496C74.0927 52.3793 73.5537 52.7113 72.5928 52.6996H72.5732C72.5537 52.6996 72.5342 52.6996 72.5146 52.7113C72.4951 52.7113 72.4756 52.723 72.456 52.723C72.4365 52.723 72.4248 52.7347 72.417 52.7347C72.3974 52.7465 72.3779 52.7543 72.3467 52.7543C72.3349 52.7543 72.3271 52.766 72.3154 52.7738C72.2959 52.7855 72.2646 52.8051 72.2451 52.8129C72.2334 52.8246 72.2334 52.8246 72.2256 52.8324C72.206 52.8519 72.1865 52.8715 72.167 52.891L72.1474 52.9105C72.1279 52.9301 72.1084 52.9613 72.0967 52.9808L72.0849 52.9926C71.5264 53.973 70.956 54.5317 70.2255 54.8012C69.3662 55.1215 68.3661 55.1293 67.495 54.8207C67.2255 54.7308 66.9951 54.6097 66.7841 54.4691C66.5536 54.3207 66.2646 54.348 66.0732 54.5277C65.8544 54.6058 65.413 54.7074 64.5927 54.7269C64.2919 54.7465 63.6044 54.4457 63.2529 54.1566C62.8036 53.7855 62.3427 53.4066 62.3036 51.7074C62.2919 51.3871 62.0224 51.1293 61.7138 51.1488C61.663 51.1488 61.6044 51.1606 61.5654 51.1801H61.4052C60.7646 51.1684 59.9638 51.1606 59.4169 50.1996C59.0185 49.5004 59.3153 48.4105 59.4364 48.0004C59.5263 47.6918 59.3466 47.3793 59.038 47.2895C58.7294 47.1996 58.4169 47.3793 58.3271 47.6879C58.1786 48.2192 57.7763 49.6488 58.4169 50.766C59.2177 52.1644 60.456 52.3051 61.1981 52.3246C61.327 53.7738 61.7997 54.4457 62.5379 55.0551C62.8895 55.3364 63.5887 55.727 64.2176 55.8442C64.2684 55.9028 64.3074 55.9653 64.3582 56.0239C63.4676 56.0629 62.5066 55.9848 61.5066 55.7621C61.2762 55.7114 61.0262 55.8207 60.8973 56.0239C60.8855 56.0434 59.6981 57.8442 55.9285 58.7739C55.1589 58.9653 54.4402 59.0239 53.7801 59.0043H53.7097C51.2214 58.895 49.6316 57.5746 49.5495 57.5043C49.3308 57.3129 48.991 57.3129 48.78 57.5239C48.7605 57.5434 47.0183 59.1645 44.3191 59.4223C43.6394 59.4809 42.8582 59.434 41.9988 59.2738C42.4676 57.4457 42.8777 55.3636 43.0769 52.973C44.1277 52.7933 45.0964 52.1723 45.3777 51.0824C45.5574 50.3637 44.448 50.0512 44.2683 50.7738C44.0886 51.4731 43.3699 51.8324 42.698 51.8754C41.8464 51.9262 40.8582 51.7153 40.1199 51.3051C39.9715 51.227 39.8191 51.1254 39.6902 51.0044C39.5105 50.8442 39.3816 50.645 39.1512 50.5434C38.6394 50.3247 38.241 50.7544 37.8114 50.9653C37.0731 51.3247 36.1903 51.395 35.413 51.1567C34.5848 50.9067 33.8935 50.3169 33.4716 49.5669C33.1122 48.9185 32.1122 49.4966 32.4833 50.145C33.0341 51.1333 33.9716 51.9067 35.0614 52.2348C35.0419 52.2856 35.0223 52.3442 35.0223 52.4067C35.0106 52.6059 34.8309 55.5356 34.8114 58.2973C34.3426 58.309 33.9325 58.2856 33.5809 58.2465C32.0692 58.0551 30.6707 56.2582 30.659 56.2348C30.5379 56.0747 30.3309 55.9848 30.1277 56.0161C30.0965 56.0161 27.0183 56.3872 24.5379 54.7349C22.1395 53.1333 21.8973 51.6646 21.8973 51.6568C21.8661 51.3755 21.6356 51.1685 21.3583 51.1451C21.327 51.1451 18.2802 50.9458 16.9599 49.0239C15.6083 47.063 16.038 44.024 16.038 43.9928C16.0692 43.7935 15.9872 43.5943 15.827 43.4615C15.8075 43.442 13.7762 41.7818 13.2762 39.8717C12.788 37.9733 13.9364 35.4225 13.9481 35.4029C14.0067 35.274 14.0184 35.1334 13.9794 35.0045C13.9794 35.0045 13.9091 34.774 13.8505 34.4459C14.7294 34.1451 15.5888 33.6646 16.3505 32.8756C16.4794 33.024 16.62 33.1646 16.7723 33.3053C16.8817 33.4068 17.0223 33.4537 17.163 33.4537C17.3231 33.4537 17.4716 33.3951 17.5927 33.2623C17.8036 33.024 17.7841 32.6607 17.5536 32.4537C16.6122 31.6021 16.2138 30.3248 16.5224 29.1256C16.8232 27.9537 17.6005 26.9967 17.6122 26.985C17.7411 26.8248 17.7841 26.6139 17.702 26.4147C17.6903 26.3952 16.8817 24.1764 17.8505 22.1842C17.9208 22.0357 17.9286 21.8639 17.8622 21.7037C17.8505 21.6842 17.1317 19.9146 17.7724 17.6529C17.7841 17.6529 17.7919 17.6529 17.8114 17.6412C18.8426 19.0123 21.702 22.6295 24.0419 23.6217C24.8427 23.9615 26.7021 24.5709 28.2138 24.5709C29.0537 24.5709 29.7919 24.3795 30.1826 23.8522C31.0342 22.692 29.5615 20.9616 29.0732 20.3913C26.292 17.1413 22.2841 15.0905 20.3232 14.2194C20.3349 14.0202 20.3427 13.8209 20.3232 13.6295C20.292 13.3092 20.0146 13.0788 19.6943 13.11C19.374 13.1413 19.1435 13.4186 19.1748 13.7389C19.2529 14.61 18.8545 15.6295 18.2256 16.1803C17.8857 16.4694 17.5459 16.5788 17.1944 16.5006C15.9249 16.2116 15.3936 15.5787 15.3663 15.5514C15.3545 15.5397 15.335 15.5202 15.3272 15.5123L15.2881 15.4733C15.2764 15.4616 15.2686 15.4616 15.2569 15.4537C15.2374 15.442 15.2178 15.4225 15.1983 15.4147C15.1866 15.4147 15.1788 15.403 15.1788 15.403C15.1475 15.3912 15.128 15.3834 15.1006 15.3717H15.0811C15.0499 15.36 15.0225 15.36 14.9913 15.3522H14.96H14.8819H14.8506C14.8194 15.3522 14.792 15.3639 14.7725 15.3717C14.7608 15.3717 14.753 15.3834 14.7413 15.3834C14.71 15.3952 14.6905 15.403 14.6631 15.4147H14.6514C14.1006 15.7155 13.253 16.0358 12.3819 15.903C10.6905 15.653 9.62021 13.4733 9.61241 13.4421C9.6007 13.4303 9.6007 13.4108 9.59288 13.403C9.58116 13.3835 8.54208 11.5749 9.24132 9.4811C9.25304 9.44985 9.26085 9.42251 9.26085 9.39126C9.28038 9.28188 9.74132 6.62956 13.3 6.46156C13.5695 6.44984 13.7882 6.25062 13.839 5.99281C13.8585 5.88343 14.3703 3.39121 17.4679 2.69201C20.5968 1.98107 21.9093 3.27013 21.9562 3.32092C22.0656 3.4303 22.2062 3.50061 22.3664 3.50061C22.5148 3.51233 22.6672 3.44201 22.7882 3.34045C22.8078 3.32091 24.9171 1.30135 27.1398 1.69205C29.3586 2.08267 30.5382 4.45375 30.55 4.48115C30.6204 4.62177 30.7493 4.73115 30.9016 4.78193C31.05 4.83271 31.2219 4.81318 31.3625 4.73115C31.4133 4.6999 32.7023 3.96943 35.093 4.6413C37.4133 5.28192 37.8742 6.9108 37.8938 6.9811C37.9446 7.19204 38.1126 7.35219 38.3235 7.40298C38.5345 7.45376 38.7532 7.38345 38.8938 7.21157C38.9134 7.19204 40.7336 5.07097 43.925 5.41077C46.8938 5.73108 47.2453 6.96937 47.2453 6.96937C47.2844 7.19984 47.4758 7.39125 47.7063 7.43031C47.9368 7.46937 48.175 7.37172 48.3078 7.16859C48.3664 7.06703 49.8586 4.71939 52.7961 4.59049C55.6945 4.46158 57.2375 7.18029 57.2961 7.30139C57.386 7.46155 57.5344 7.57092 57.718 7.59045C57.8977 7.6217 58.0774 7.5592 58.2063 7.43029C58.2766 7.35998 59.9954 5.71939 62.5071 6.94201C65.0852 8.20371 65.3274 10.9303 65.3352 11.0436C65.3469 11.2038 65.425 11.3522 65.554 11.4538C65.6829 11.5553 65.843 11.5944 66.0032 11.5632C66.1126 11.5436 68.804 11.1139 70.7024 13.2351C72.6321 15.3953 72.511 17.1765 72.511 17.2546C72.4797 17.5553 72.6907 17.8249 72.9914 17.8756C73.011 17.8756 75.4133 18.3171 76.3703 20.4459C77.3586 22.6451 75.9719 26.3248 75.9602 26.3678C75.8821 26.5788 75.9289 26.8288 76.0891 26.9889C76.1203 27.0202 78.7493 29.6491 79.1282 32.8483C79.4212 35.8835 78.5419 38.0003 75.831 40.6722ZM82.8818 27.5512C82.6826 27.6801 82.581 27.9418 82.6435 28.1723C82.6435 28.1918 83.0927 30.0317 82.124 31.0004C81.4326 31.6918 80.5459 31.7699 80.0537 31.7504C79.4521 29.1723 77.7646 27.1293 77.1045 26.4106C77.456 25.3598 78.3662 22.1801 77.3662 19.9614C77.0771 19.3129 76.6865 18.7895 76.2646 18.3716C77.0654 18.1528 78.2646 17.9302 79.3427 18.2231C81.0732 18.6841 81.7529 20.434 81.7529 20.4419C81.8037 20.5904 81.9248 20.7115 82.0615 20.7701C82.1513 20.8091 84.3623 21.8013 84.4717 24.0709C84.5811 26.3834 82.9404 27.5121 82.8818 27.5512Z" stroke="#FAFAFA" mask="url(#path-1-outside-1_27_5)"/>
</svg>
